<?xml version="1.0" encoding="UTF-8" standalone="no"?>
<svg
   xmlns:dc="http://purl.org/dc/elements/1.1/"
   xmlns:cc="http://creativecommons.org/ns#"
   xmlns:rdf="http://www.w3.org/1999/02/22-rdf-syntax-ns#"
   xmlns:svg="http://www.w3.org/2000/svg"
   xmlns="http://www.w3.org/2000/svg"
   xmlns:sodipodi="http://sodipodi.sourceforge.net/DTD/sodipodi-0.dtd"
   xmlns:inkscape="http://www.inkscape.org/namespaces/inkscape"
   sodipodi:docname="002-fall.svg"
   inkscape:version="1.0.1 (3bc2e813f5, 2020-09-07)"
   width="632.14929"
   height="700"
   viewBox="0 0 632.14929 700.00002"
   version="1.1"
   id="SVGRoot">
  <defs
     id="defs833" />
  <sodipodi:namedview
     inkscape:object-nodes="false"
     id="base"
     pagecolor="#ffffff"
     bordercolor="#666666"
     borderopacity="1.0"
     inkscape:pageopacity="0.0"
     inkscape:pageshadow="2"
     inkscape:zoom="3.9999998"
     inkscape:cx="425.20903"
     inkscape:cy="251.65593"
     inkscape:document-units="px"
     inkscape:current-layer="layer6"
     inkscape:document-rotation="0"
     showgrid="false"
     inkscape:window-width="2560"
     inkscape:window-height="1375"
     inkscape:window-x="0"
     inkscape:window-y="0"
     inkscape:window-maximized="1"
     inkscape:snap-bbox="true"
     inkscape:bbox-paths="true"
     inkscape:bbox-nodes="true"
     inkscape:snap-bbox-edge-midpoints="false"
     inkscape:snap-bbox-midpoints="false"
     fit-margin-top="0"
     fit-margin-left="0"
     fit-margin-right="0"
     fit-margin-bottom="0"
     inkscape:snap-others="false"
     showborder="false" />
  <metadata
     id="metadata836">
    <rdf:RDF>
      <cc:Work
         rdf:about="">
        <dc:format>image/svg+xml</dc:format>
        <dc:type
           rdf:resource="http://purl.org/dc/dcmitype/StillImage" />
        <dc:title />
      </cc:Work>
    </rdf:RDF>
  </metadata>
  <g
     inkscape:label="walls"
     inkscape:groupmode="layer"
     id="layer1">
    <path
       id="rect1429-3-7-5-2-3-3"
       style="fill:#000000;fill-opacity:1;stroke:none;stroke-width:0.486249;stroke-miterlimit:4;stroke-dasharray:none;stroke-opacity:1"
       d="m 72.732231,91.993675 h 16.43931 l -16.43931,26.399985 z"
       sodipodi:nodetypes="cccc" />
    <rect
       ry="0"
       y="25.507643"
       x="26.080814"
       height="14.18351"
       width="25.723017"
       id="rect1429-3"
       style="fill:#000000;fill-opacity:1;stroke:none;stroke-width:0.445827;stroke-miterlimit:4;stroke-dasharray:none;stroke-opacity:1" />
    <rect
       ry="0"
       y="-16.675869"
       x="26.080814"
       height="42.18351"
       width="19.552305"
       id="rect1429-3-3"
       style="fill:#000000;fill-opacity:1;stroke:none;stroke-width:0.670321;stroke-miterlimit:4;stroke-dasharray:none;stroke-opacity:1" />
    <rect
       ry="0"
       y="-16.275867"
       x="60.239429"
       height="41.783508"
       width="16.750923"
       id="rect1429-3-3-3"
       style="fill:#000000;fill-opacity:1;stroke:none;stroke-width:0.617498;stroke-miterlimit:4;stroke-dasharray:none;stroke-opacity:1" />
    <rect
       ry="0"
       y="25.507643"
       x="54.510326"
       height="14.18351"
       width="22.428143"
       id="rect1429-3-6"
       style="fill:#000000;fill-opacity:1;stroke:none;stroke-width:0.416296;stroke-miterlimit:4;stroke-dasharray:none;stroke-opacity:1" />
    <rect
       ry="0"
       y="39.691154"
       x="9.8601599"
       height="60.50489"
       width="29.585329"
       id="rect1429-3-7"
       style="fill:#000000;fill-opacity:1;stroke:none;stroke-width:0.98753;stroke-miterlimit:4;stroke-dasharray:none;stroke-opacity:1" />
    <rect
       ry="0"
       y="39.691154"
       x="72.732231"
       height="52.302521"
       width="16.43931"
       id="rect1429-3-7-5"
       style="fill:#000000;fill-opacity:1;stroke:none;stroke-width:0.684416;stroke-miterlimit:4;stroke-dasharray:none;stroke-opacity:1" />
    <rect
       ry="0"
       y="65.211853"
       x="39.445488"
       height="1.4088367"
       width="18.698502"
       id="rect1429-3-7-3"
       style="fill:#000000;fill-opacity:1;stroke:none;stroke-width:0.119798;stroke-miterlimit:4;stroke-dasharray:none;stroke-opacity:1" />
    <rect
       ry="0"
       y="49.663525"
       x="58.58622"
       height="1.4088367"
       width="14.146009"
       id="rect1429-3-7-3-5"
       style="fill:#000000;fill-opacity:1;stroke:none;stroke-width:0.104199;stroke-miterlimit:4;stroke-dasharray:none;stroke-opacity:1" />
    <rect
       ry="0"
       y="82.820168"
       x="56.516678"
       height="1.4088367"
       width="16.215555"
       id="rect1429-3-7-3-6"
       style="fill:#000000;fill-opacity:1;stroke:none;stroke-width:0.111561;stroke-miterlimit:4;stroke-dasharray:none;stroke-opacity:1" />
    <rect
       ry="0"
       y="98.787209"
       x="39.445488"
       height="1.4088367"
       width="18.238731"
       id="rect1429-3-7-3-6-2"
       style="fill:#000000;fill-opacity:1;stroke:none;stroke-width:0.118317;stroke-miterlimit:4;stroke-dasharray:none;stroke-opacity:1" />
    <rect
       ry="0"
       y="100.19604"
       x="9.8601599"
       height="70.860817"
       width="52.055168"
       id="rect1429-3-7-6"
       style="fill:#000000;fill-opacity:1;stroke:none;stroke-width:1.41759;stroke-miterlimit:4;stroke-dasharray:none;stroke-opacity:1" />
    <rect
       ry="0"
       y="121.10522"
       x="109.14429"
       height="85.680527"
       width="19.655169"
       id="rect1429-3-7-6-1"
       style="fill:#000000;fill-opacity:1;stroke:none;stroke-width:0.957849;stroke-miterlimit:4;stroke-dasharray:none;stroke-opacity:1" />
    <path
       id="rect1429-3-7-6-1-9-2"
       style="fill:#000000;fill-opacity:1;stroke:none;stroke-width:0.170462;stroke-miterlimit:4;stroke-dasharray:none;stroke-opacity:1"
       d="m 118.45901,92.118926 13.16887,-3.799999 -6.08112,28.750763 h -1.85516 z"
       sodipodi:nodetypes="ccccc" />
    <rect
       ry="0"
       y="39.691154"
       x="39.445488"
       height="14.18351"
       width="7.9230137"
       id="rect1429-3-75"
       style="fill:#000000;fill-opacity:1;stroke:none;stroke-width:0.247429;stroke-miterlimit:4;stroke-dasharray:none;stroke-opacity:1" />
    <rect
       ry="0"
       y="39.691154"
       x="64.809219"
       height="9.9723701"
       width="7.9230137"
       id="rect1429-3-75-9"
       style="fill:#000000;fill-opacity:1;stroke:none;stroke-width:0.207471;stroke-miterlimit:4;stroke-dasharray:none;stroke-opacity:1" />
    <path
       id="rect1429-3-7-5-2-3-3-6"
       style="fill:#000000;fill-opacity:1;stroke:none;stroke-width:0.154518;stroke-miterlimit:4;stroke-dasharray:none;stroke-opacity:1"
       d="m 61.915329,100.19605 h 2.481466 l -2.481466,17.6608 z"
       sodipodi:nodetypes="cccc" />
    <path
       id="rect1429-3-7-5-2-3-3-6-2"
       style="fill:#000000;fill-opacity:1;stroke:none;stroke-width:0.0717781;stroke-miterlimit:4;stroke-dasharray:none;stroke-opacity:1"
       d="m 57.684219,100.19605 h 6.712576 l -6.712576,-1.408841 z"
       sodipodi:nodetypes="cccc" />
    <path
       id="rect1429-3-3-36-3-6-7-5-3-5-6"
       style="display:inline;opacity:1;fill:#000000;fill-opacity:1;stroke-width:0.399768"
       d="m 139.30568,125.65337 1.5609,0.37891 0.50624,1.92956 -1.96107,1.33848 -1.82009,1.29762 -2.91,-1.30321 0.87848,-2.69974 1.04046,-1.14956 z"
       sodipodi:nodetypes="ccccccccc" />
    <path
       id="rect1429-3-6-9"
       style="fill:#000000;fill-opacity:1;stroke:none;stroke-width:1.84242;stroke-miterlimit:4;stroke-dasharray:none;stroke-opacity:1"
       d="m 351.95602,179.03188 h 31.83578 l 34.49323,57.67502 v 36.2626 h -66.32901 z"
       sodipodi:nodetypes="cccccc" />
    <path
       id="rect1429-3-3-36-3-6-7-5-3-5-6-3"
       style="display:inline;opacity:1;fill:#000000;fill-opacity:1;stroke-width:0.289508"
       d="m 137.54867,140.16674 1.45501,-0.11606 1.39687,1.576 -2.65483,2.96483 -0.95455,1.29762 -1.52615,-1.30321 0.46072,-2.69974 0.54567,-1.14956 z"
       sodipodi:nodetypes="ccccccccc" />
    <path
       id="rect1429-3-3-36-3-6-7-5-3-5-6-3-6"
       style="display:inline;opacity:1;fill:#000000;fill-opacity:1;stroke-width:1.05891"
       d="m 169.18918,133.59456 4.99733,1.26868 30.16767,33.36142 -0.0612,49.09892 -49.94947,-0.65553 0.0416,-74.65519 2.81252,-5.91645 3.33111,-2.51925 z"
       sodipodi:nodetypes="ccccccccc" />
    <path
       id="rect1429-3-3-3-5"
       style="fill:#000000;fill-opacity:1;stroke:none;stroke-width:0.456344;stroke-miterlimit:4;stroke-dasharray:none;stroke-opacity:1"
       d="m 237.44296,132.33656 13.38204,-11.6 13.56888,11.6 v 14.18351 h -26.95092 z"
       sodipodi:nodetypes="cccccc" />
    <path
       id="rect1126"
       style="opacity:1;fill:#000000;fill-opacity:1;stroke-width:0;paint-order:fill markers stroke;stop-color:#000000"
       d="m 209.50001,156.75099 2.174,2.32401 -2.17401,2.32401 -2.174,-2.32401 z" />
    <path
       id="rect1126-3-6"
       style="opacity:1;fill:#000000;fill-opacity:1;stroke-width:0;paint-order:fill markers stroke;stop-color:#000000"
       d="m 275.30824,141.05099 2.174,2.51815 -2.17401,2.51815 -2.174,-2.51815 z" />
    <path
       id="rect1126-3-6-0"
       style="opacity:1;fill:#000000;fill-opacity:1;stroke-width:0;paint-order:fill markers stroke;stop-color:#000000"
       d="m 295.71678,145.02288 2.174,2.51814 -2.17401,2.51815 -2.174,-2.51815 z" />
    <path
       id="rect1126-3-6-0-6"
       style="opacity:1;fill:#000000;fill-opacity:1;stroke-width:0;paint-order:fill markers stroke;stop-color:#000000"
       d="m 333.53324,156.04248 2.174,2.51815 -2.17401,2.51815 -2.174,-2.51815 z" />
    <path
       id="rect1126-3-6-0-2"
       style="opacity:1;fill:#000000;fill-opacity:1;stroke-width:0;paint-order:fill markers stroke;stop-color:#000000"
       d="m 314.57501,150.73186 2.174,2.51814 -2.17401,2.51815 -2.174,-2.51815 z" />
    <path
       id="rect1126-2"
       style="opacity:1;fill:#000000;fill-opacity:1;stroke-width:0;paint-order:fill markers stroke;stop-color:#000000"
       d="m 144.00001,80.028948 2.174,1.901705 L 144,83.832359 141.826,81.930653 Z" />
    <path
       id="rect1126-2-3"
       style="opacity:1;fill:#000000;fill-opacity:1;stroke-width:0;paint-order:fill markers stroke;stop-color:#000000"
       d="m 165.50686,87.227465 2.174,1.901705 -2.17401,1.901705 -2.174,-1.901705 z" />
    <path
       id="rect1126-2-3-7-5-9"
       style="opacity:1;fill:#000000;fill-opacity:1;stroke-width:0;paint-order:fill markers stroke;stop-color:#000000"
       d="m 186.57501,88.948271 2.174,1.901704 -2.17401,1.901706 -2.174,-1.901706 z" />
    <path
       id="rect1126-2-3-7-5-9-2-8"
       style="opacity:1;fill:#000000;fill-opacity:1;stroke-width:0;paint-order:fill markers stroke;stop-color:#000000"
       d="m 224.32502,98.379018 2.174,1.901702 -2.17401,1.90171 -2.174,-1.90171 z" />
    <path
       id="rect1126-3-6-6"
       style="opacity:1;fill:#000000;fill-opacity:1;stroke-width:0;paint-order:fill markers stroke;stop-color:#000000"
       d="m 269.525,104.39822 2.174,2.06056 -2.17401,2.06057 -2.174,-2.06057 z" />
    <path
       id="rect1126-3-6-6-1-2"
       style="opacity:1;fill:#000000;fill-opacity:1;stroke-width:0;paint-order:fill markers stroke;stop-color:#000000"
       d="m 315.18877,110.13184 2.174,2.06057 -2.17401,2.06057 -2.174,-2.06057 z" />
    <path
       id="rect1429-3-7-6-1-9-2-3"
       style="fill:#000000;fill-opacity:1;stroke:none;stroke-width:0.212487;stroke-miterlimit:4;stroke-dasharray:none;stroke-opacity:1"
       d="m 361.95321,126.29756 18.46887,15.6 -11.38112,32.67452 h -1.85516 z"
       sodipodi:nodetypes="ccccc" />
    <path
       id="rect1429-3-7-6-1-6"
       style="fill:#000000;fill-opacity:1;stroke:none;stroke-width:0.921858;stroke-miterlimit:4;stroke-dasharray:none;stroke-opacity:1"
       d="m 470.95209,156.44536 36.15466,25.45584 0.0686,68.34674 -29.79437,-67.30658 z"
       sodipodi:nodetypes="ccccc" />
    <path
       id="rect1126-3-6-6-1-2-7"
       style="opacity:1;fill:#000000;fill-opacity:1;stroke-width:0;paint-order:fill markers stroke;stop-color:#000000"
       d="m 430.97775,238.74009 2.174,2.06057 -2.17401,2.06057 -2.174,-2.06057 z" />
    <path
       id="rect1429-3-7-6-1-6-3"
       style="fill:#000000;fill-opacity:1;stroke:none;stroke-width:1.01873;stroke-miterlimit:4;stroke-dasharray:none;stroke-opacity:1"
       d="m 505.70727,254.65807 0,48.02186 -28.42329,-0.28284 0,-69.86503 6.05921,-3.1252 z"
       sodipodi:nodetypes="cccccc" />
    <path
       id="rect1429-3-7-6-1-2"
       style="fill:#000000;fill-opacity:1;stroke:none;stroke-width:0.736149;stroke-miterlimit:4;stroke-dasharray:none;stroke-opacity:1"
       d="m 573.74722,273.1059 h 17.29918 l 2.35599,3.59954 v 47.00848 h -19.65517 z"
       sodipodi:nodetypes="cccccc" />
    <path
       id="rect1429-3-7-6-1-6-8"
       style="fill:#000000;fill-opacity:1;stroke:none;stroke-width:1.00229;stroke-miterlimit:4;stroke-dasharray:none;stroke-opacity:1"
       d="m 586.54169,216.87599 30.51794,23.76023 0.13384,22.6791 -2.31639,-0.008 -19.18868,-0.45817 -7.27597,-20.91671 z"
       sodipodi:nodetypes="ccccccc" />
    <path
       id="rect1429-3-7-6-1-2-2"
       style="fill:#000000;fill-opacity:1;stroke:none;stroke-width:0.0650892;stroke-miterlimit:4;stroke-dasharray:none;stroke-opacity:1"
       d="m 588.5361,270.01546 h 2.51629 v 3.09044 h -2.51629 z" />
    <path
       id="rect1429-3-7-6-1-2-23"
       style="fill:#000000;fill-opacity:1;stroke:none;stroke-width:0.957849;stroke-miterlimit:4;stroke-dasharray:none;stroke-opacity:1"
       d="m 617.20151,273.65033 h -17.29918 l -2.35599,6.0941 v 53.18642 l 19.65517,0.0191 z"
       sodipodi:nodetypes="cccccc" />
    <path
       id="rect1429-3-7-6-1-2-2-5"
       style="fill:#000000;fill-opacity:1;stroke:none;stroke-width:0.120267;stroke-miterlimit:4;stroke-dasharray:none;stroke-opacity:1"
       d="m 614.69326,263.06532 h 2.50825 v 10.58501 h -2.50825 z" />
    <path
       id="rect1429-3-6-3"
       style="fill:#000000;fill-opacity:1;stroke:none;stroke-width:2.07625;stroke-miterlimit:4;stroke-dasharray:none;stroke-opacity:1"
       d="m 667.24799,351.76492 81.25939,64.60558 v 32.77246 h -81.25939 z"
       sodipodi:nodetypes="ccccc" />
    <rect
       ry="0"
       y="290.70963"
       x="754.16425"
       height="158.43332"
       width="38.125824"
       id="rect1429-3-6-6"
       style="fill:#000000;fill-opacity:1;stroke:none;stroke-width:1.81403;stroke-miterlimit:4;stroke-dasharray:none;stroke-opacity:1" />
    <rect
       ry="0"
       y="323.71393"
       x="573.74719"
       height="126.70209"
       width="14.059393"
       id="rect1429-3-6-3-2"
       style="fill:#000000;fill-opacity:1;stroke:none;stroke-width:0.985117;stroke-miterlimit:4;stroke-dasharray:none;stroke-opacity:1" />
    <path
       id="rect1126-3-6-6-1-2-7-5-9"
       style="opacity:1;fill:#000000;fill-opacity:1;stroke-width:0;paint-order:fill markers stroke;stop-color:#000000"
       d="m 587.77928,339.30903 -0.005,-15.60411 5.62791,0.009 z"
       sodipodi:nodetypes="cccc" />
    <path
       id="rect1429-3-7-6-1-6-4"
       style="fill:#000000;fill-opacity:1;stroke:none;stroke-width:0.403098;stroke-miterlimit:4;stroke-dasharray:none;stroke-opacity:1"
       d="m 617.2095,332.92495 -15.33408,-0.025 -0.69527,33.40355 16.02136,-23.93232 z"
       sodipodi:nodetypes="ccccc" />
    <path
       id="rect1126-3-6-6-1-2-7-5-9-7"
       style="opacity:1;fill:#000000;fill-opacity:1;stroke-width:0;paint-order:fill markers stroke;stop-color:#000000"
       d="m 603.16925,348.55406 -0.29552,-15.63063 -5.32739,-0.0175 z"
       sodipodi:nodetypes="cccc" />
    <rect
       ry="0"
       y="416.30896"
       x="748.50739"
       height="32.833992"
       width="5.6568604"
       id="rect1429-3-6-6-8"
       style="fill:#000000;fill-opacity:1;stroke:none;stroke-width:0.318098;stroke-miterlimit:4;stroke-dasharray:none;stroke-opacity:1" />
    <path
       id="rect1429-3-6-6-8-0"
       style="fill:#000000;fill-opacity:1;stroke:none;stroke-width:0.847668;stroke-miterlimit:4;stroke-dasharray:none;stroke-opacity:1"
       d="m 708.90938,290.70963 h 45.25484 v 125.08983 z"
       sodipodi:nodetypes="cccc" />
    <path
       id="rect1126-3-6-6-1-2-7-3"
       style="opacity:1;fill:#000000;fill-opacity:1;stroke-width:0;paint-order:fill markers stroke;stop-color:#000000"
       d="m 521.10891,258.89629 1.67902,1.59142 -1.67903,1.59142 -1.67902,-1.59142 z" />
    <path
       id="rect1126-3-6-6-1-2-7-3-6"
       style="opacity:1;fill:#000000;fill-opacity:1;stroke-width:0;paint-order:fill markers stroke;stop-color:#000000"
       d="m 604.15208,370.771 1.67902,1.59142 -1.67903,1.59142 -1.67902,-1.59142 z" />
    <path
       id="rect1126-3-6-6-3"
       style="opacity:1;fill:#000000;fill-opacity:1;stroke-width:0;paint-order:fill markers stroke;stop-color:#000000"
       d="m 390.18121,131.35601 2.174,2.06056 -2.17401,2.06057 -2.174,-2.06057 z" />
    <path
       id="rect1126-3-6-6-1-2-5-6"
       style="opacity:1;fill:#000000;fill-opacity:1;stroke-width:0;paint-order:fill markers stroke;stop-color:#000000"
       d="m 428.04707,126.76148 2.174,2.06057 -2.17401,2.06057 -2.174,-2.06057 z" />
    <path
       id="rect1126-3-6-6-1-2-5-6-2"
       style="opacity:1;fill:#000000;fill-opacity:1;stroke-width:0;paint-order:fill markers stroke;stop-color:#000000"
       d="m 459.84999,136.21443 2.174,2.06057 -2.17401,2.06057 -2.174,-2.06057 z" />
    <path
       id="rect1126-3-6-6-1-2-5-6-9"
       style="opacity:1;fill:#000000;fill-opacity:1;stroke-width:0;paint-order:fill markers stroke;stop-color:#000000"
       d="m 538.50561,200.71344 2.174,2.06057 -2.17401,2.06057 -2.174,-2.06057 z" />
    <path
       id="rect1429-3-7-6-1-6-6"
       style="fill:#000000;fill-opacity:1;stroke:none;stroke-width:0.921858;stroke-miterlimit:4;stroke-dasharray:none;stroke-opacity:1"
       d="m 470.95209,81.968924 36.15466,25.455836 0.0686,68.34674 -36.29974,-57.40709 z"
       sodipodi:nodetypes="ccccc" />
    <path
       id="rect1429-3-6-6-8-0-0"
       style="fill:#000000;fill-opacity:1;stroke:none;stroke-width:0.26828;stroke-miterlimit:4;stroke-dasharray:none;stroke-opacity:1"
       d="m 643.5038,273.57851 -26.45175,-0.033 v -32.90834 z"
       sodipodi:nodetypes="cccc" />
    <rect
       ry="0"
       y="222.6763"
       x="700.14124"
       height="68.033325"
       width="92.148849"
       id="rect1429-3-6-6-6"
       style="fill:#000000;fill-opacity:1;stroke:none;stroke-width:1.84806;stroke-miterlimit:4;stroke-dasharray:none;stroke-opacity:1" />
    <path
       id="rect1126-3-6-6-1-2-5-6-9-2"
       style="opacity:1;fill:#000000;fill-opacity:1;stroke-width:0;paint-order:fill markers stroke;stop-color:#000000"
       d="m 661.03879,279.79219 2.174,2.06057 -2.17401,2.06057 -2.174,-2.06057 z" />
    <path
       id="rect1126-3-6-6-1-2-5-6-9-2-6"
       style="opacity:1;fill:#000000;fill-opacity:1;stroke-width:0;paint-order:fill markers stroke;stop-color:#000000"
       d="m 669.17049,306.02586 2.174,2.06057 -2.17401,2.06057 -2.174,-2.06057 z" />
    <path
       id="rect1429-3-7-6-1-6-6-7"
       style="fill:#000000;fill-opacity:1;stroke:none;stroke-width:0.921858;stroke-miterlimit:4;stroke-dasharray:none;stroke-opacity:1"
       d="m 580.97021,142.8508 36.15466,25.45584 0.0686,68.34674 -36.29974,-57.40709 z"
       sodipodi:nodetypes="ccccc" />
    <path
       id="rect1126-3-6-6-1-2-7-3-7"
       style="opacity:1;fill:#000000;fill-opacity:1;stroke-width:0;paint-order:fill markers stroke;stop-color:#000000"
       d="m 567.38248,257.4218 1.67902,1.59142 -1.67903,1.59142 -1.67902,-1.59142 z" />
  </g>
  <g
     inkscape:groupmode="layer"
     id="layer4"
     inkscape:label="checkpoints"
     style="opacity:0.5"
     sodipodi:insensitive="true">
    <rect
       style="opacity:1;fill:#0000ff;fill-opacity:1;stroke:none;stroke-width:0.0844747;stroke-opacity:1"
       id="rect1438-1-0-9"
       width="1.8256248"
       height="6.4135499"
       x="49.978207"
       y="19.094093"
       ry="0" />
    <rect
       style="opacity:1;fill:#0000ff;fill-opacity:1;stroke:none;stroke-width:0.825354;stroke-opacity:1"
       id="rect1438-1-0-9-9-6"
       width="18.23049"
       height="61.311192"
       x="361.82465"
       y="117.7207"
       ry="0" />
    <rect
       style="opacity:1;fill:#0000ff;fill-opacity:1;stroke:none;stroke-width:0.0844747;stroke-opacity:1"
       id="rect1438-1-0-9-9-7"
       width="1.8256248"
       height="6.4135499"
       x="161.28865"
       y="127.16361"
       ry="0" />
    <rect
       style="opacity:1;fill:#0000ff;fill-opacity:1;stroke:none;stroke-width:0.57018;stroke-opacity:1"
       id="rect1438-1-0-9-9-9"
       width="9.4541721"
       height="56.423233"
       x="119.34528"
       y="64.681984"
       ry="0" />
  </g>
  <g
     inkscape:groupmode="layer"
     id="layer2"
     inkscape:label="death_zones"
     style="opacity:0.5">
    <rect
       style="opacity:1;fill:#ff0000;fill-opacity:1;stroke:none;stroke-width:0;stroke-miterlimit:4;stroke-dasharray:none;stroke-opacity:1;paint-order:fill markers stroke"
       id="rect1433-6-5-5-6-1-9-5-5"
       width="6.2229996"
       height="0.4664081"
       x="58.58622"
       y="49.197117"
       ry="0" />
    <rect
       style="opacity:1;fill:#ff0000;fill-opacity:1;stroke:none;stroke-width:0;stroke-miterlimit:4;stroke-dasharray:none;stroke-opacity:1;paint-order:fill markers stroke"
       id="rect1433-6-5-5-6-1-9-5-5-1"
       width="18.698502"
       height="0.4664081"
       x="39.445488"
       y="64.745445"
       ry="0" />
    <rect
       style="opacity:1;fill:#ff0000;fill-opacity:1;stroke:none;stroke-width:0;stroke-miterlimit:4;stroke-dasharray:none;stroke-opacity:1;paint-order:fill markers stroke"
       id="rect1433-6-5-5-6-1-9-5-5-1-2"
       width="16.215557"
       height="0.4664081"
       x="56.516678"
       y="82.35376"
       ry="0" />
    <rect
       style="opacity:1;fill:#ff0000;fill-opacity:1;stroke:none;stroke-width:0;stroke-miterlimit:4;stroke-dasharray:none;stroke-opacity:1;paint-order:fill markers stroke"
       id="rect1433-6-5-5-6-1-9-5-5-1-7"
       width="18.238731"
       height="0.4664081"
       x="39.445488"
       y="98.320801"
       ry="0" />
    <path
       id="rect1429-3-7-5-2-3-3-1"
       style="fill:#ff0000;fill-opacity:1;stroke:none;stroke-width:0.758603;stroke-miterlimit:4;stroke-dasharray:none;stroke-opacity:1"
       d="M 109.14429,143.8694 H 61.915329 l 47.228961,-22.36611 z"
       sodipodi:nodetypes="cccc" />
    <path
       id="rect1429-3-7-5-2-3-3-1-0"
       style="opacity:1;fill:#ff0000;fill-opacity:1;stroke:none;stroke-width:1.7609;stroke-miterlimit:4;stroke-dasharray:none;stroke-opacity:1"
       d="m 204.07559,217.52003 h 147.88043 l 0.80094,-24.22036 -79.50458,-19.59026 -69.17679,5.32247 z"
       sodipodi:nodetypes="cccccc" />
    <rect
       style="opacity:1;fill:#ff0000;fill-opacity:1;stroke:none;stroke-width:0;stroke-miterlimit:4;stroke-dasharray:none;stroke-opacity:1;paint-order:fill markers stroke"
       id="rect1433-6-5-5-6-1-9-5-5-1-7-0-8-7-6"
       width="25.544056"
       height="5.4125481"
       x="128.79945"
       y="157.89374"
       ry="0" />
    <rect
       style="opacity:1;fill:#ff0000;fill-opacity:1;stroke:none;stroke-width:0;stroke-miterlimit:4;stroke-dasharray:none;stroke-opacity:1;paint-order:fill markers stroke"
       id="rect1243"
       width="25.544056"
       height="5.4125481"
       x="128.79945"
       y="157.89374"
       ry="0" />
    <rect
       style="opacity:1;fill:#ff0000;fill-opacity:1;stroke:none;stroke-width:0;stroke-miterlimit:4;stroke-dasharray:none;stroke-opacity:1;paint-order:fill markers stroke"
       id="rect1243-1"
       width="58.998947"
       height="5.4125481"
       x="418.28503"
       y="255.77509"
       ry="0" />
    <rect
       style="opacity:1;fill:#ff0000;fill-opacity:1;stroke:none;stroke-width:0;stroke-miterlimit:4;stroke-dasharray:none;stroke-opacity:1;paint-order:fill markers stroke"
       id="rect1243-1-2-3-1-0"
       width="68.039948"
       height="3.5581353"
       x="505.70728"
       y="280.737"
       ry="0" />
    <rect
       style="opacity:1;fill:#ff0000;fill-opacity:1;stroke:none;stroke-width:0;stroke-miterlimit:4;stroke-dasharray:none;stroke-opacity:1;paint-order:fill markers stroke"
       id="rect1243-1-2-3-1-0-9"
       width="14.788909"
       height="1.0125465"
       x="573.74719"
       y="272.09335"
       ry="0" />
    <rect
       style="opacity:1;fill:#ff0000;fill-opacity:1;stroke:none;stroke-width:0;stroke-miterlimit:4;stroke-dasharray:none;stroke-opacity:1;paint-order:fill markers stroke"
       id="rect1243-1-2-3-1-0-9-2"
       width="14.788909"
       height="1.0125465"
       x="599.8963"
       y="272.63779"
       ry="0" />
    <rect
       style="opacity:1;fill:#ff0000;fill-opacity:1;stroke:none;stroke-width:0;stroke-miterlimit:4;stroke-dasharray:none;stroke-opacity:1;paint-order:fill markers stroke"
       id="rect1243-1-2-3-1-0-4"
       width="79.441406"
       height="3.5581353"
       x="587.80664"
       y="400.82092"
       ry="0" />
  </g>
  <g
     inkscape:groupmode="layer"
     id="layer3"
     inkscape:label="objects">
    <rect
       style="opacity:1;fill:#00ff01;fill-opacity:1;stroke:#000000;stroke-width:0.0913536;stroke-linejoin:miter;stroke-miterlimit:4;stroke-dasharray:none;stroke-opacity:1"
       id="player"
       width="1"
       height="2"
       x="54.556004"
       y="23.461966"
       ry="0" />
  </g>
  <g
     inkscape:groupmode="layer"
     id="layer6"
     inkscape:label="decorations">
    <path
       id="rect478"
       style="display:inline;opacity:0.5;fill:#000000;stroke-width:0;paint-order:fill markers stroke;stop-color:#000000"
       d="m 80.600819,115.02696 -2.600938,0.46165 0.946426,0.72261 -1.179341,1.5446 0.946426,0.72262 1.17934,-1.5446 0.946426,0.72261 z"
       sodipodi:nodetypes="cccccccc" />
    <path
       id="rect478-2"
       style="display:inline;opacity:0.5;fill:#000000;stroke-width:0;paint-order:fill markers stroke;stop-color:#000000"
       d="m 82.057821,121.24191 -2.499979,-0.8533 0.479138,1.09011 -1.779093,0.78196 0.479133,1.0901 1.779092,-0.78196 0.479137,1.0901 z"
       sodipodi:nodetypes="cccccccc" />
    <path
       id="rect478-2-3"
       style="display:inline;opacity:1;fill:#646464;fill-opacity:1;stroke-width:0;paint-order:fill markers stroke;stop-color:#000000"
       d="m 142.42316,144.18406 -1.9851,0.42392 0.7461,0.52969 -0.86451,1.21763 0.7461,0.52971 0.86448,-1.21763 0.74608,0.52967 z"
       sodipodi:nodetypes="cccccccc" />
    <path
       id="rect478-2-3-7"
       style="display:inline;opacity:1;fill:#646464;fill-opacity:1;stroke-width:0;paint-order:fill markers stroke;stop-color:#000000"
       d="m 213.49552,161.13448 -2.02717,-0.10431 0.58358,0.70475 -1.1502,0.95239 0.58358,0.70476 1.15017,-0.95239 0.58357,0.70472 z"
       sodipodi:nodetypes="cccccccc" />
    <path
       id="rect478-2-3-7-9"
       style="display:inline;opacity:1;fill:#646464;fill-opacity:1;stroke-width:0;paint-order:fill markers stroke;stop-color:#000000"
       d="m 341.07386,161.00165 -1.26427,-1.58806 -0.14161,0.90399 -1.47532,-0.23116 -0.14162,0.90398 1.47529,0.23114 -0.1416,0.90395 z"
       sodipodi:nodetypes="cccccccc" />
    <path
       id="rect478-2-3-7-9-2"
       style="display:inline;opacity:1;fill:#646464;fill-opacity:1;stroke-width:0;paint-order:fill markers stroke;stop-color:#000000"
       d="m 435.8546,243.56189 -2.02971,0.0247 0.62719,0.66625 -1.08736,1.02354 0.62717,0.66625 1.08733,-1.02353 0.62716,0.66622 z"
       sodipodi:nodetypes="cccccccc" />
    <path
       id="rect478-2-3-7-9-2-2"
       style="display:inline;opacity:1;fill:#646464;fill-opacity:1;stroke-width:0;paint-order:fill markers stroke;stop-color:#000000"
       d="m 525.17191,262.09894 -2.02971,0.0247 0.62719,0.66625 -1.08736,1.02354 0.62717,0.66625 1.08733,-1.02353 0.62716,0.66622 z"
       sodipodi:nodetypes="cccccccc" />
    <path
       id="rect478-2-3-7-9-2-2-8"
       style="display:inline;opacity:1;fill:#646464;fill-opacity:1;stroke-width:0;paint-order:fill markers stroke;stop-color:#000000"
       d="m 575.12569,252.74846 -0.38738,-1.99256 -0.54331,0.73625 -1.20154,-0.88672 -0.54332,0.73623 1.20153,0.8867 -0.54329,0.73622 z"
       sodipodi:nodetypes="cccccccc" />
    <path
       id="rect478-2-3-7-9-2-2-8-6"
       style="display:inline;opacity:1;fill:#646464;fill-opacity:1;stroke-width:0;paint-order:fill markers stroke;stop-color:#000000"
       d="m 608.71022,373.80916 -2.02586,0.12754 0.66015,0.63361 -1.03407,1.07734 0.66013,0.63361 1.03405,-1.07734 0.66013,0.63358 z"
       sodipodi:nodetypes="cccccccc" />
    <path
       id="rect478-2-3-7-9-2-2-8-6-1"
       style="display:inline;opacity:1;fill:#646464;fill-opacity:1;stroke-width:0;paint-order:fill markers stroke;stop-color:#000000"
       d="m 666.23986,283.66806 1.36479,-1.50257 -0.915,0.005 -0.008,-1.49328 -0.91499,0.005 0.008,1.49326 -0.91496,0.005 z"
       sodipodi:nodetypes="cccccccc" />
    <path
       id="rect478-2-3-7-9-2-2-8-6-1-2"
       style="display:inline;opacity:1;fill:#646464;fill-opacity:1;stroke-width:0;paint-order:fill markers stroke;stop-color:#000000"
       d="m 674.32637,312.71162 -1.9269,-0.63831 0.37558,0.83438 -1.36177,0.6128 0.37557,0.83438 1.36176,-0.6128 0.37556,0.83435 z"
       sodipodi:nodetypes="cccccccc" />
    <path
       id="rect478-2-3-7-9-2-2-8-6-1-3"
       style="display:inline;opacity:1;fill:#646464;fill-opacity:1;stroke-width:0;paint-order:fill markers stroke;stop-color:#000000"
       d="m 670.54629,283.66806 1.36479,-1.50257 -0.915,0.005 -0.008,-1.49328 -0.91499,0.005 0.008,1.49326 -0.91496,0.005 z"
       sodipodi:nodetypes="cccccccc" />
    <path
       id="rect478-2-3-7-9-2-2-8-6-1-3-1"
       style="display:inline;opacity:1;fill:#646464;fill-opacity:1;stroke-width:0;paint-order:fill markers stroke;stop-color:#000000"
       d="m 674.85272,283.66806 1.36479,-1.50257 -0.915,0.005 -0.008,-1.49328 -0.91499,0.005 0.008,1.49326 -0.91496,0.005 z"
       sodipodi:nodetypes="cccccccc" />
    <path
       id="rect478-2-3-7-9-2-2-8-6-1-9"
       style="display:inline;opacity:1;fill:#646464;fill-opacity:1;stroke-width:0;paint-order:fill markers stroke;stop-color:#000000"
       d="m 652.9459,288.39932 0.67158,-1.91554 -0.84075,0.36106 -0.58912,-1.3722 -0.84075,0.36106 0.58911,1.37217 -0.84073,0.36105 z"
       sodipodi:nodetypes="cccccccc" />
    <path
       id="rect478-6"
       style="display:inline;opacity:0.5;fill:#000000;stroke-width:0;paint-order:fill markers stroke;stop-color:#000000"
       d="m 131.89389,129.82764 1.77863,-1.95308 -1.19074,0.005 -0.008,-1.94335 -1.19075,0.005 0.008,1.94334 -1.19074,0.005 z"
       sodipodi:nodetypes="cccccccc" />
    <path
       id="rect478-2-3-7-9-2-2-8-6-3"
       style="display:inline;opacity:1;fill:#646464;fill-opacity:1;stroke-width:0;paint-order:fill markers stroke;stop-color:#000000"
       d="m 594.9322,364.592 1.34231,-1.52268 -0.91482,0.0188 -0.0306,-1.49299 -0.91481,0.0187 0.0306,1.49298 -0.91479,0.0188 z"
       sodipodi:nodetypes="cccccccc" />
    <path
       id="rect478-2-3-7-9-2-2-8-6-3-6"
       style="display:inline;opacity:1;fill:#646464;fill-opacity:1;stroke-width:0;paint-order:fill markers stroke;stop-color:#000000"
       d="m 504.19429,249.30823 0.17424,-2.02237 -0.72446,0.55893 -0.91212,-1.18237 -0.72451,0.55885 0.91211,1.18236 -0.72444,0.55891 z"
       sodipodi:nodetypes="cccccccc" />
  </g>
</svg>
