<?xml version="1.0" encoding="UTF-8" standalone="no"?>
<svg
   xmlns:dc="http://purl.org/dc/elements/1.1/"
   xmlns:cc="http://creativecommons.org/ns#"
   xmlns:rdf="http://www.w3.org/1999/02/22-rdf-syntax-ns#"
   xmlns:svg="http://www.w3.org/2000/svg"
   xmlns="http://www.w3.org/2000/svg"
   xmlns:sodipodi="http://sodipodi.sourceforge.net/DTD/sodipodi-0.dtd"
   xmlns:inkscape="http://www.inkscape.org/namespaces/inkscape"
   id="SVGRoot"
   version="1.1"
   viewBox="0 0 632.14929 147.41747"
   height="147.41747"
   width="632.14929"
   inkscape:version="1.0.1 (3bc2e813f5, 2020-09-07)"
   sodipodi:docname="001-beginning.svg">
  <defs
     id="defs833" />
  <sodipodi:namedview
     inkscape:object-nodes="false"
     id="base"
     pagecolor="#ffffff"
     bordercolor="#666666"
     borderopacity="1.0"
     inkscape:pageopacity="0.0"
     inkscape:pageshadow="2"
     inkscape:zoom="3.6948104"
     inkscape:cx="555.75943"
     inkscape:cy="98.901228"
     inkscape:document-units="px"
     inkscape:current-layer="layer1"
     inkscape:document-rotation="0"
     showgrid="false"
     inkscape:window-width="2560"
     inkscape:window-height="1375"
     inkscape:window-x="0"
     inkscape:window-y="0"
     inkscape:window-maximized="1"
     inkscape:snap-bbox="true"
     inkscape:bbox-paths="true"
     inkscape:bbox-nodes="true"
     inkscape:snap-bbox-edge-midpoints="false"
     inkscape:snap-bbox-midpoints="false"
     fit-margin-top="0"
     fit-margin-left="0"
     fit-margin-right="0"
     fit-margin-bottom="0"
     inkscape:snap-others="false"
     inkscape:pagecheckerboard="false"
     showborder="false" />
  <metadata
     id="metadata836">
    <rdf:RDF>
      <cc:Work
         rdf:about="">
        <dc:format>image/svg+xml</dc:format>
        <dc:type
           rdf:resource="http://purl.org/dc/dcmitype/StillImage" />
        <dc:title />
      </cc:Work>
    </rdf:RDF>
  </metadata>
  <g
     inkscape:label="walls"
     inkscape:groupmode="layer"
     id="layer1">
    <rect
       style="fill:#000000;fill-opacity:1;stroke:none;stroke-width:0.51622;stroke-opacity:1"
       id="rect1429"
       width="15.815399"
       height="56.08857"
       x="28.284559"
       y="26.426258"
       ry="0" />
    <rect
       style="fill:#000000;fill-opacity:1;stroke:none;stroke-width:0.276765;stroke-opacity:1"
       id="rect1431"
       width="1.9521781"
       height="13.782222"
       x="51.530018"
       y="5.8956571"
       ry="0" />
    <rect
       style="fill:#000000;fill-opacity:1;stroke:none;stroke-width:0;stroke-miterlimit:4;stroke-dasharray:none;stroke-opacity:1;paint-order:fill markers stroke"
       id="rect1433"
       width="15.392158"
       height="55.783592"
       x="55.437595"
       y="26.971775"
       ry="0" />
    <rect
       ry="0"
       y="25.507643"
       x="-31.051521"
       height="65.065704"
       width="54.837776"
       id="rect1429-3"
       style="fill:#000000;fill-opacity:1;stroke:none;stroke-width:1.39422;stroke-miterlimit:4;stroke-dasharray:none;stroke-opacity:1" />
    <rect
       style="fill:#000000;fill-opacity:1;stroke:none;stroke-width:1.5447;stroke-opacity:1"
       id="overhang-rect"
       width="12.809319"
       height="65.430199"
       x="71.689148"
       y="-43.380962"
       ry="0" />
    <rect
       style="fill:#000000;fill-opacity:1;stroke:none;stroke-width:0;stroke-miterlimit:4;stroke-dasharray:none;stroke-opacity:1;paint-order:fill markers stroke"
       id="platformrect"
       width="15.392158"
       height="67.563667"
       x="87.120934"
       y="29.472157"
       ry="0" />
    <rect
       style="fill:#000000;fill-opacity:1;stroke:none;stroke-width:0;stroke-miterlimit:4;stroke-dasharray:none;stroke-opacity:1;paint-order:fill markers stroke"
       id="rect1433-6-5"
       width="21.544926"
       height="78.009674"
       x="120.6325"
       y="-44.650944"
       ry="0" />
    <rect
       style="fill:#000000;fill-opacity:1;stroke:none;stroke-width:0;stroke-miterlimit:4;stroke-dasharray:none;stroke-opacity:1;paint-order:fill markers stroke"
       id="rect1433-6-5-3"
       width="26.384117"
       height="76.321327"
       x="125.5968"
       y="42.953541"
       ry="0" />
    <rect
       ry="0"
       y="-1.2340212"
       x="-31.101805"
       height="26.741663"
       width="38.582634"
       id="rect1429-3-3"
       style="fill:#000000;fill-opacity:1;stroke:none;stroke-width:0.749727;stroke-miterlimit:4;stroke-dasharray:none;stroke-opacity:1" />
    <rect
       style="fill:#000000;fill-opacity:1;stroke:none;stroke-width:0;stroke-miterlimit:4;stroke-dasharray:none;stroke-opacity:1;paint-order:fill markers stroke;font-variation-settings:normal;opacity:1;vector-effect:none;stroke-linecap:butt;stroke-linejoin:miter;stroke-dashoffset:0;stop-color:#000000;stop-opacity:1"
       id="rect1433-6-5-6"
       width="2.0581434"
       height="35.930061"
       x="171.18291"
       y="19.354334"
       ry="0" />
    <rect
       style="fill:#000000;fill-opacity:1;stroke:none;stroke-width:0;stroke-miterlimit:4;stroke-dasharray:none;stroke-opacity:1;paint-order:fill markers stroke"
       id="rect1433-6-5-3-7"
       width="22.189558"
       height="64.554848"
       x="184.23912"
       y="52.970608"
       ry="0" />
    <rect
       style="fill:#000000;fill-opacity:1;stroke:none;stroke-width:0;stroke-miterlimit:4;stroke-dasharray:none;stroke-opacity:1;paint-order:fill markers stroke"
       id="rect1433-6-5-5"
       width="21.529984"
       height="27.485783"
       x="205.52336"
       y="20.776134"
       ry="0" />
    <rect
       style="fill:#000000;fill-opacity:1;stroke:none;stroke-width:0;stroke-miterlimit:4;stroke-dasharray:none;stroke-opacity:1;paint-order:fill markers stroke"
       id="rect1433-6-5-5-6"
       width="26.836174"
       height="49.078762"
       x="227.05334"
       y="3.2497363"
       ry="0" />
    <rect
       style="fill:#000000;fill-opacity:1;stroke:none;stroke-width:0;stroke-miterlimit:4;stroke-dasharray:none;stroke-opacity:1;paint-order:fill markers stroke"
       id="rect1433-6-5-5-6-1"
       width="26.836174"
       height="44.179489"
       x="253.88953"
       y="12.215582"
       ry="0" />
    <rect
       style="fill:#000000;fill-opacity:1;stroke:none;stroke-width:0;stroke-miterlimit:4;stroke-dasharray:none;stroke-opacity:1;paint-order:fill markers stroke"
       id="rect1433-6-5-5-6-1-2"
       width="26.836174"
       height="44.48568"
       x="280.72571"
       y="15.975973"
       ry="0" />
    <rect
       style="fill:#000000;fill-opacity:1;stroke:none;stroke-width:0;stroke-miterlimit:4;stroke-dasharray:none;stroke-opacity:1;paint-order:fill markers stroke"
       id="rect1433-6-5-3-7-7"
       width="28.541376"
       height="61.62328"
       x="314.44604"
       y="74.473312"
       ry="0" />
    <rect
       style="fill:#000000;fill-opacity:1;stroke:none;stroke-width:0.51029;stroke-opacity:1"
       id="rect1431-1"
       width="1.9521781"
       height="46.852402"
       x="350.41748"
       y="21.791145"
       ry="0" />
    <rect
       style="fill:#000000;fill-opacity:1;stroke:none;stroke-width:1.34781;stroke-opacity:1"
       id="overhang-rect-9"
       width="12.809319"
       height="49.813717"
       x="362.34885"
       y="21.201189"
       ry="0" />
    <rect
       style="fill:#000000;fill-opacity:1;stroke:none;stroke-width:0;stroke-miterlimit:4;stroke-dasharray:none;stroke-opacity:1;paint-order:fill markers stroke"
       id="rect1433-6-5-1"
       width="19.707674"
       height="57.493919"
       x="390.24661"
       y="24.830482"
       ry="0" />
    <rect
       style="fill:#000000;fill-opacity:1;stroke:none;stroke-width:0;stroke-miterlimit:4;stroke-dasharray:none;stroke-opacity:1;paint-order:fill markers stroke"
       id="rect1433-6-5-6-4"
       width="2.0581434"
       height="54.608585"
       x="441.71561"
       y="49.641483"
       ry="0" />
    <rect
       style="fill:#000000;fill-opacity:1;stroke:none;stroke-width:0;stroke-miterlimit:4;stroke-dasharray:none;stroke-opacity:1;paint-order:fill markers stroke"
       id="rect1433-6-5-5-4"
       width="21.529984"
       height="59.94355"
       x="476.05606"
       y="37.284039"
       ry="0" />
    <rect
       style="fill:#000000;fill-opacity:1;stroke:none;stroke-width:0;stroke-miterlimit:4;stroke-dasharray:none;stroke-opacity:1;paint-order:fill markers stroke"
       id="rect1433-6-5-5-6-5"
       width="26.836174"
       height="64.07756"
       x="497.58609"
       y="37.216606"
       ry="0" />
    <rect
       style="fill:#000000;fill-opacity:1;stroke:none;stroke-width:0;stroke-miterlimit:4;stroke-dasharray:none;stroke-opacity:1;paint-order:fill markers stroke"
       id="rect1433-6-5-5-6-1-0"
       width="26.836174"
       height="68.141541"
       x="524.4223"
       y="36.819538"
       ry="0" />
    <rect
       style="fill:#000000;fill-opacity:1;stroke:none;stroke-width:0;stroke-miterlimit:4;stroke-dasharray:none;stroke-opacity:1;paint-order:fill markers stroke"
       id="rect1433-6-5-5-6-1-2-3"
       width="26.836174"
       height="17.490822"
       x="551.25848"
       y="91.936508"
       ry="0" />
    <rect
       style="fill:#000000;fill-opacity:1;stroke:none;stroke-width:0;stroke-miterlimit:4;stroke-dasharray:none;stroke-opacity:1;paint-order:fill markers stroke"
       id="rect1433-6-5-5-6-1-2-3-6"
       width="24.792023"
       height="46.328621"
       x="598.57373"
       y="139.73311"
       ry="0" />
    <rect
       style="fill:#000000;fill-opacity:1;stroke:none;stroke-width:0;stroke-miterlimit:4;stroke-dasharray:none;stroke-opacity:1;paint-order:fill markers stroke"
       id="rect1223"
       width="26.836174"
       height="72.607788"
       x="551.25848"
       y="36.819538"
       ry="0" />
    <rect
       style="font-variation-settings:normal;opacity:1;vector-effect:none;fill:#000000;fill-opacity:1;stroke:none;stroke-width:0;stroke-linecap:butt;stroke-linejoin:miter;stroke-miterlimit:4;stroke-dasharray:none;stroke-dashoffset:0;stroke-opacity:1;paint-order:fill markers stroke;stop-color:#000000;stop-opacity:1"
       id="rect1433-6-5-6-6"
       width="4.0068173"
       height="30.727217"
       x="167.1761"
       y="19.354334"
       ry="0" />
    <rect
       style="font-variation-settings:normal;opacity:1;vector-effect:none;fill:#000000;fill-opacity:1;stroke:none;stroke-width:0;stroke-linecap:butt;stroke-linejoin:miter;stroke-miterlimit:4;stroke-dasharray:none;stroke-dashoffset:0;stroke-opacity:1;paint-order:fill markers stroke;stop-color:#000000;stop-opacity:1"
       id="rect1433-6-5-6-6-7"
       width="4.0068173"
       height="45.731274"
       x="437.7088"
       y="49.641483"
       ry="0" />
    <rect
       style="fill:#000000;fill-opacity:1;stroke:none;stroke-width:0;stroke-miterlimit:4;stroke-dasharray:none;stroke-opacity:1;paint-order:fill markers stroke"
       id="rect1433-6-5-5-3"
       width="21.529984"
       height="57.187706"
       x="205.52336"
       y="-8.9257898"
       ry="0" />
  </g>
  <g
     inkscape:groupmode="layer"
     id="layer5"
     inkscape:label="decorations"
     style="opacity:0.68225885">
    <rect
       style="fill:#646464;fill-opacity:1;stroke:none;stroke-width:0.265473;stroke-opacity:1"
       id="rect1431-3"
       width="0.80391091"
       height="30.792555"
       x="14.091129"
       y="-5.2849126"
       ry="0" />
    <path
       id="rect478"
       style="display:inline;opacity:0.5;fill:#000000;stroke-width:0;paint-order:fill markers stroke;stop-color:#000000"
       d="m 112.80207,41.674379 -2.47692,-0.918095 0.45059,1.102202 -1.79885,0.735372 0.45059,1.102216 1.79885,-0.735373 0.45059,1.102207 z"
       sodipodi:nodetypes="cccccccc" />
    <path
       id="rect478-6"
       style="display:inline;opacity:0.5;fill:#000000;stroke-width:0;paint-order:fill markers stroke;stop-color:#000000"
       d="m 177.20787,58.540844 -2.5414,0.720624 1.01423,0.623868 -1.01819,1.655269 1.01424,0.62388 1.01819,-1.65527 1.01425,0.623872 z"
       sodipodi:nodetypes="cccccccc" />
    <path
       id="rect478-6-7"
       style="display:inline;opacity:0.5;fill:#000000;stroke-width:0;paint-order:fill markers stroke;stop-color:#000000"
       d="m 314.55304,66.818902 -2.60931,-0.41173 0.65905,0.991729 -1.61855,1.075596 0.65905,0.991744 1.61856,-1.075597 0.65907,0.991741 z"
       sodipodi:nodetypes="cccccccc" />
    <path
       id="rect478-6-7-5"
       style="display:inline;opacity:0.5;fill:#000000;stroke-width:0;paint-order:fill markers stroke;stop-color:#000000"
       d="m 381.6883,80.445752 -0.11372,-2.639145 -0.84139,0.842575 -1.37512,-1.373194 -0.84141,0.842576 1.37512,1.373205 -0.8414,0.842596 z"
       sodipodi:nodetypes="cccccccc" />
    <path
       id="rect478-6-7-5-3"
       style="display:inline;opacity:0.5;fill:#000000;stroke-width:0;paint-order:fill markers stroke;stop-color:#000000"
       d="m 418.2262,91.877058 -0.11394,-2.639135 -0.84132,0.842643 -1.37523,-1.373083 -0.84134,0.842645 1.37523,1.373093 -0.84133,0.842664 z"
       sodipodi:nodetypes="cccccccc" />
    <path
       id="rect478-6-7-5-3-5"
       style="display:inline;opacity:0.5;fill:#000000;stroke-width:0;paint-order:fill markers stroke;stop-color:#000000"
       d="m 454.81215,104.82977 -2.61524,-0.37231 0.67395,0.98167 -1.60214,1.09991 0.67395,0.98168 1.60214,-1.0999 0.67396,0.98168 z"
       sodipodi:nodetypes="cccccccc" />
    <path
       id="rect478-6-7-5-3-5-2"
       style="display:inline;opacity:0.5;fill:#000000;stroke-width:0;paint-order:fill markers stroke;stop-color:#000000"
       d="m 493.78519,105.21552 -1.20834,-2.34904 -0.41127,1.11746 -1.82376,-0.67122 -0.41128,1.11747 1.82375,0.67123 -0.41128,1.11749 z"
       sodipodi:nodetypes="cccccccc" />
    <path
       id="rect478-6-7-5-3-5-2-9"
       style="display:inline;opacity:0.5;fill:#000000;stroke-width:0;paint-order:fill markers stroke;stop-color:#000000"
       d="m 524.12231,109.79676 -1.20834,-2.34904 -0.41127,1.11746 -1.82376,-0.67122 -0.41128,1.11747 1.82375,0.67123 -0.41128,1.11749 z"
       sodipodi:nodetypes="cccccccc" />
    <path
       id="rect478-6-7-5-3-5-2-9-1"
       style="display:inline;opacity:0.5;fill:#000000;stroke-width:0;paint-order:fill markers stroke;stop-color:#000000"
       d="m 551.06839,114.17932 -1.20834,-2.34904 -0.41127,1.11746 -1.82376,-0.67122 -0.41128,1.11747 1.82375,0.67123 -0.41128,1.11749 z"
       sodipodi:nodetypes="cccccccc" />
    <path
       id="rect478-6-7-5-3-5-2-2"
       style="display:inline;opacity:0.5;fill:#000000;stroke-width:0;paint-order:fill markers stroke;stop-color:#000000"
       d="m 224.22102,56.857866 -1.20834,-2.34904 -0.41127,1.11746 -1.82376,-0.67122 -0.41128,1.11747 1.82375,0.67123 -0.41128,1.11749 z"
       sodipodi:nodetypes="cccccccc" />
    <path
       id="rect478-6-7-5-3-5-2-9-7"
       style="display:inline;opacity:0.5;fill:#000000;stroke-width:0;paint-order:fill markers stroke;stop-color:#000000"
       d="m 254.55814,61.439106 -1.20834,-2.34904 -0.41127,1.11746 -1.82376,-0.67122 -0.41128,1.11747 1.82375,0.67123 -0.41128,1.11749 z"
       sodipodi:nodetypes="cccccccc" />
    <path
       id="rect478-6-7-5-3-5-2-9-1-0"
       style="display:inline;opacity:0.5;fill:#000000;stroke-width:0;paint-order:fill markers stroke;stop-color:#000000"
       d="m 281.50422,65.821666 -1.20834,-2.34904 -0.41127,1.11746 -1.82376,-0.67122 -0.41128,1.11747 1.82375,0.67123 -0.41128,1.11749 z"
       sodipodi:nodetypes="cccccccc" />
    <path
       id="rect478-6-9"
       style="display:inline;opacity:0.5;fill:#000000;stroke-width:0;paint-order:fill markers stroke;stop-color:#000000"
       d="m 160.03401,48.67515 1.39865,-2.240938 -1.17041,0.219103 -0.35759,-1.910174 -1.17042,0.219102 0.35757,1.910173 -1.17042,0.219115 z"
       sodipodi:nodetypes="cccccccc" />
    <path
       id="rect478-6-7-5-3-5-2-9-1-3"
       style="display:inline;opacity:0.5;fill:#000000;stroke-width:0;paint-order:fill markers stroke;stop-color:#000000"
       d="m 581.97296,116.57157 -0.78002,-2.52382 -0.5999,1.02858 -1.6787,-0.97909 -0.59992,1.02859 1.67869,0.97909 -0.59992,1.02861 z"
       sodipodi:nodetypes="cccccccc" />
    <path
       id="rect478-6-7-5-6"
       style="display:inline;opacity:0.5;fill:#000000;stroke-width:0;paint-order:fill markers stroke;stop-color:#000000"
       d="m 354.33993,75.632063 -1.94656,-1.785745 8.3e-4,1.190743 -1.94335,0.0014 8.3e-4,1.190757 1.94336,-0.0014 8.4e-4,1.190765 z"
       sodipodi:nodetypes="cccccccc" />
    <path
       id="rect478-6-7-5-6-0"
       style="display:inline;opacity:0.5;fill:#000000;stroke-width:0;paint-order:fill markers stroke;stop-color:#000000"
       d="m 19.281582,13.501307 -1.94656,-1.785745 8.3e-4,1.190743 -1.94335,0.0014 8.3e-4,1.190757 1.94336,-0.0014 8.4e-4,1.190765 z"
       sodipodi:nodetypes="cccccccc" />
    <path
       id="rect478-6-7-5-6-0-6"
       style="display:inline;opacity:0.5;fill:#000000;stroke-width:0;paint-order:fill markers stroke;stop-color:#000000"
       d="m 19.281582,17.843888 -1.94656,-1.785745 8.3e-4,1.190743 -1.94335,0.0014 8.3e-4,1.190757 1.94336,-0.0014 8.4e-4,1.190765 z"
       sodipodi:nodetypes="cccccccc" />
    <path
       id="rect478-6-7-5-6-0-6-2"
       style="display:inline;opacity:0.5;fill:#000000;stroke-width:0;paint-order:fill markers stroke;stop-color:#000000"
       d="m 19.281582,22.186468 -1.94656,-1.785745 8.3e-4,1.190743 -1.94335,0.0014 8.3e-4,1.190757 1.94336,-0.0014 8.4e-4,1.190765 z"
       sodipodi:nodetypes="cccccccc" />
    <rect
       style="opacity:1;fill:#000000;stroke:none;stroke-width:0.27496;stroke-opacity:1"
       id="rect1438-1-0-6-3-6-7-5-3-5-6-3-6-3"
       width="2.3128352"
       height="53.635857"
       x="621.05292"
       y="86.097252"
       ry="0"
       inkscape:label="finish" />
    <path
       id="rect478-6-7-5-6-6"
       style="display:inline;opacity:0.5;fill:#000000;stroke-width:0;paint-order:fill markers stroke;stop-color:#000000"
       d="m 619.98118,90.945046 -1.94656,-1.78574 8.3e-4,1.19074 -1.94335,10e-4 8.3e-4,1.19076 1.94336,-10e-4 8.4e-4,1.19076 z"
       sodipodi:nodetypes="cccccccc" />
    <path
       id="rect478-6-7-5-6-6-1"
       style="display:inline;opacity:0.5;fill:#000000;stroke-width:0;paint-order:fill markers stroke;stop-color:#000000"
       d="m 619.98118,95.171469 -1.94656,-1.78574 8.3e-4,1.19074 -1.94335,10e-4 8.3e-4,1.19076 1.94336,-0.001 8.4e-4,1.19076 z"
       sodipodi:nodetypes="cccccccc" />
    <path
       id="rect478-6-7-5-6-6-2"
       style="display:inline;opacity:0.5;fill:#000000;stroke-width:0;paint-order:fill markers stroke;stop-color:#000000"
       d="m 619.98118,99.397898 -1.94656,-1.78574 8.3e-4,1.19074 -1.94335,0.001 8.3e-4,1.19076 1.94336,-0.001 8.4e-4,1.190762 z"
       sodipodi:nodetypes="cccccccc" />
    <path
       id="rect478-6-7-5-6-6-1-9"
       style="display:inline;opacity:0.5;fill:#000000;stroke-width:0;paint-order:fill markers stroke;stop-color:#000000"
       d="m 619.98118,103.62431 -1.94656,-1.78573 8.3e-4,1.19074 -1.94335,0.001 8.3e-4,1.19075 1.94336,-10e-4 8.4e-4,1.19076 z"
       sodipodi:nodetypes="cccccccc" />
    <path
       id="rect478-6-7-5-6-6-7"
       style="display:inline;opacity:0.5;fill:#000000;stroke-width:0;paint-order:fill markers stroke;stop-color:#000000"
       d="m 619.98118,107.85074 -1.94656,-1.78574 8.3e-4,1.19074 -1.94335,10e-4 8.3e-4,1.19076 1.94336,-0.001 8.4e-4,1.19076 z"
       sodipodi:nodetypes="cccccccc" />
    <path
       id="rect478-6-7-5-6-6-1-8"
       style="display:inline;opacity:0.5;fill:#000000;stroke-width:0;paint-order:fill markers stroke;stop-color:#000000"
       d="m 619.98118,112.07716 -1.94656,-1.78574 8.3e-4,1.19074 -1.94335,0.001 8.3e-4,1.19076 1.94336,-10e-4 8.4e-4,1.19076 z"
       sodipodi:nodetypes="cccccccc" />
    <path
       id="rect478-6-7-5-6-6-2-4"
       style="display:inline;opacity:0.5;fill:#000000;stroke-width:0;paint-order:fill markers stroke;stop-color:#000000"
       d="m 619.98118,116.30359 -1.94656,-1.78574 8.3e-4,1.19074 -1.94335,0.001 8.3e-4,1.19076 1.94336,-0.001 8.4e-4,1.19076 z"
       sodipodi:nodetypes="cccccccc" />
    <path
       id="rect478-6-7-5-6-6-1-9-5"
       style="display:inline;opacity:0.5;fill:#000000;stroke-width:0;paint-order:fill markers stroke;stop-color:#000000"
       d="m 619.98118,120.53001 -1.94656,-1.78573 8.3e-4,1.19073 -1.94335,10e-4 8.3e-4,1.19076 1.94336,-10e-4 8.4e-4,1.19076 z"
       sodipodi:nodetypes="cccccccc" />
    <path
       id="rect478-6-7-5-6-6-1-8-6"
       style="display:inline;opacity:0.5;fill:#000000;stroke-width:0;paint-order:fill markers stroke;stop-color:#000000"
       d="m 619.98118,124.75644 -1.94656,-1.78574 8.3e-4,1.19074 -1.94335,0.001 8.3e-4,1.19076 1.94336,-0.001 8.4e-4,1.19076 z"
       sodipodi:nodetypes="cccccccc" />
    <path
       id="rect478-6-7-5-6-6-2-4-3"
       style="display:inline;opacity:0.5;fill:#000000;stroke-width:0;paint-order:fill markers stroke;stop-color:#000000"
       d="m 619.98118,128.98286 -1.94656,-1.78574 8.3e-4,1.19074 -1.94335,0.001 8.3e-4,1.19076 1.94336,-0.001 8.4e-4,1.19076 z"
       sodipodi:nodetypes="cccccccc" />
    <path
       id="rect478-6-7-5-6-6-1-9-5-2"
       style="display:inline;opacity:0.5;fill:#000000;stroke-width:0;paint-order:fill markers stroke;stop-color:#000000"
       d="m 619.98118,133.20928 -1.94656,-1.78573 8.3e-4,1.19073 -1.94335,0.001 8.3e-4,1.19076 1.94336,-0.001 8.4e-4,1.19076 z"
       sodipodi:nodetypes="cccccccc" />
    <path
       id="rect478-6-7-5-6-6-1-9-5-2-0"
       style="display:inline;opacity:0.5;fill:#000000;stroke-width:0;paint-order:fill markers stroke;stop-color:#000000"
       d="m 619.98118,137.43572 -1.94656,-1.78573 8.3e-4,1.19073 -1.94335,0.001 8.3e-4,1.19076 1.94336,-0.001 8.4e-4,1.19076 z"
       sodipodi:nodetypes="cccccccc" />
    <path
       id="rect478-6-7-5-6-0-61"
       style="display:inline;opacity:0.5;fill:#000000;stroke-width:0;paint-order:fill markers stroke;stop-color:#000000"
       d="m 19.281582,0.4735646 -1.94656,-1.7857446 8.3e-4,1.1907426 -1.94335,0.0014 8.3e-4,1.190757 1.94336,-0.0014 8.4e-4,1.190765 z"
       sodipodi:nodetypes="cccccccc" />
    <path
       id="rect478-6-7-5-6-0-6-5"
       style="display:inline;opacity:0.5;fill:#000000;stroke-width:0;paint-order:fill markers stroke;stop-color:#000000"
       d="m 19.281582,4.8161452 -1.94656,-1.785745 8.3e-4,1.190743 -1.94335,0.0014 8.3e-4,1.190757 1.94336,-0.0014 8.4e-4,1.190765 z"
       sodipodi:nodetypes="cccccccc" />
    <path
       id="rect478-6-7-5-6-0-6-2-5"
       style="display:inline;opacity:0.5;fill:#000000;stroke-width:0;paint-order:fill markers stroke;stop-color:#000000"
       d="m 19.281582,9.158727 -1.94656,-1.7857449 8.3e-4,1.190743 -1.94335,0.0014 8.3e-4,1.1907569 1.94336,-0.0014 8.4e-4,1.190765 z"
       sodipodi:nodetypes="cccccccc" />
  </g>
  <g
     inkscape:groupmode="layer"
     id="layer4"
     inkscape:label="checkpoints"
     style="opacity:0.5">
    <rect
       style="opacity:1;fill:#0000ff;stroke:none;stroke-width:0.0941171;stroke-opacity:1"
       id="rect1438-1-0-6-3-6"
       width="2.2437937"
       height="6.477489"
       x="35.243759"
       y="19.948769"
       ry="0" />
    <rect
       style="opacity:1;fill:#0000ff;stroke:none;stroke-width:0.144002;stroke-opacity:1"
       id="rect1438-1-0-6-3-6-7"
       width="1.8715528"
       height="18.179659"
       x="62.347656"
       y="8.7921143"
       ry="0" />
    <rect
       style="opacity:1;fill:#0000ff;stroke:none;stroke-width:0.140828;stroke-opacity:1"
       id="rect1438-1-0-6-3-6-7-5"
       width="2.3128352"
       height="14.069948"
       x="93.769951"
       y="15.402208"
       ry="0" />
    <rect
       style="opacity:1;fill:#0000ff;stroke:none;stroke-width:0.116295;stroke-opacity:1"
       id="rect1438-1-0-6-3-6-7-5-3"
       width="2.3128352"
       height="9.5948086"
       x="139.86459"
       y="33.358734"
       ry="0" />
    <rect
       style="opacity:1;fill:#0000ff;stroke:none;stroke-width:0.223761;stroke-opacity:1"
       id="rect1438-1-0-6-3-6-7-5-3-5"
       width="2.3128352"
       height="35.520893"
       x="193.8035"
       y="17.449711"
       ry="0" />
    <rect
       style="opacity:1;fill:#0000ff;stroke:none;stroke-width:0.27496;stroke-opacity:1"
       id="rect1438-1-0-6-3-6-7-5-3-5-6"
       width="2.3128352"
       height="53.635857"
       x="332.13177"
       y="20.837454"
       ry="0" />
    <rect
       style="opacity:1;fill:#0000ff;fill-opacity:1;stroke:none;stroke-width:0.0844747;stroke-opacity:1"
       id="rect1438-1-0-9"
       width="1.8256248"
       height="6.4135499"
       x="14.282627"
       y="19.094093"
       ry="0" />
    <rect
       style="opacity:1;fill:#00ff00;stroke:none;stroke-width:0.27496;stroke-opacity:1"
       id="rect1438-1-0-6-3-6-7-5-3-5-6-3-6"
       width="2.3128352"
       height="53.635857"
       x="621.05292"
       y="86.097252"
       ry="0"
       inkscape:label="finish" />
  </g>
  <g
     inkscape:groupmode="layer"
     id="layer2"
     inkscape:label="death_zones"
     style="opacity:0.5">
    <rect
       style="opacity:1;fill:#ff0000;stroke:none;stroke-width:0.304441;stroke-opacity:1"
       id="rect1438-1"
       width="16.291178"
       height="9.3349247"
       x="70.82975"
       y="36.125706"
       ry="0" />
    <rect
       style="opacity:1;fill:#ff0000;stroke:none;stroke-width:0.123589;stroke-opacity:1"
       id="rect1438-1-0"
       width="4.4983006"
       height="5.5714831"
       x="23.786259"
       y="27.268326"
       ry="0" />
    <rect
       style="opacity:1;fill:#ff0000;stroke:none;stroke-width:0.156976;stroke-opacity:1"
       id="rect1438-1-0-6"
       width="11.337637"
       height="3.5661263"
       x="44.09996"
       y="36.12571"
       ry="0" />
    <rect
       style="opacity:1;fill:#ff0000;stroke:none;stroke-width:0.362393;stroke-opacity:1"
       id="rect1438-1-3"
       width="23.08371"
       height="9.3349247"
       x="102.51309"
       y="50.343857"
       ry="0" />
    <rect
       style="opacity:1;fill:#ff0000;stroke:none;stroke-width:0.428398;stroke-opacity:1"
       id="rect1438-1-3-2"
       width="32.258194"
       height="9.3349247"
       x="151.98093"
       y="70.121269"
       ry="0" />
    <rect
       style="fill:#ff0000;fill-opacity:1;stroke:none;stroke-width:0;stroke-miterlimit:4;stroke-dasharray:none;stroke-opacity:1;paint-order:fill markers stroke"
       id="rect1433-6-5-5-65"
       width="20.624666"
       height="27.485783"
       x="206.42868"
       y="70.381401"
       ry="0" />
    <rect
       style="fill:#ff0000;fill-opacity:1;stroke:none;stroke-width:0;stroke-miterlimit:4;stroke-dasharray:none;stroke-opacity:1;paint-order:fill markers stroke"
       id="rect1433-6-5-5-6-6"
       width="26.836174"
       height="18.152021"
       x="227.05334"
       y="83.781746"
       ry="0" />
    <rect
       style="fill:#ff0000;fill-opacity:1;stroke:none;stroke-width:0;stroke-miterlimit:4;stroke-dasharray:none;stroke-opacity:1;paint-order:fill markers stroke"
       id="rect1433-6-5-5-6-1-9"
       width="60.556519"
       height="16.621006"
       x="253.88953"
       y="89.379333"
       ry="0" />
    <rect
       style="opacity:1;fill:#ff0000;fill-opacity:1;stroke:none;stroke-width:0;stroke-miterlimit:4;stroke-dasharray:none;stroke-opacity:1;paint-order:fill markers stroke"
       id="rect1433-6-5-5-6-1-9-5"
       width="26.527922"
       height="14.729599"
       x="342.98743"
       y="99.54039"
       ry="0" />
    <rect
       style="opacity:1;fill:#ff0000;fill-opacity:1;stroke:none;stroke-width:0;stroke-miterlimit:4;stroke-dasharray:none;stroke-opacity:1;paint-order:fill markers stroke"
       id="rect1433-6-5-5-6-1-9-5-5"
       width="42.144367"
       height="11.489801"
       x="411.65973"
       y="123.61636"
       ry="0" />
    <rect
       style="opacity:1;fill:#ff0000;fill-opacity:1;stroke:none;stroke-width:0;stroke-miterlimit:4;stroke-dasharray:none;stroke-opacity:1;paint-order:fill markers stroke"
       id="rect1433-6-5-5-6-1-9-5-5-3"
       width="42.144367"
       height="13.939454"
       x="369.51535"
       y="114.26999"
       ry="0" />
    <rect
       style="opacity:1;fill:#ff0000;fill-opacity:1;stroke:none;stroke-width:0;stroke-miterlimit:4;stroke-dasharray:none;stroke-opacity:1;paint-order:fill markers stroke"
       id="rect1433-6-5-5-6-1-9-5-5-6"
       width="42.144379"
       height="11.489801"
       x="453.80411"
       y="123.61636"
       ry="0" />
    <rect
       style="opacity:1;fill:#ff0000;fill-opacity:1;stroke:none;stroke-width:0;stroke-miterlimit:4;stroke-dasharray:none;stroke-opacity:1;paint-order:fill markers stroke"
       id="rect1433-6-5-5-6-1-9-5-5-7"
       width="65.722198"
       height="5.851758"
       x="495.94849"
       y="135.10617"
       ry="0" />
    <rect
       style="opacity:1;fill:#ff0000;fill-opacity:1;stroke:none;stroke-width:0;stroke-miterlimit:4;stroke-dasharray:none;stroke-opacity:1;paint-order:fill markers stroke"
       id="rect1433-6-5-5-6-1-9-5-5-5"
       width="36.938877"
       height="5.0594816"
       x="561.63483"
       y="140.95793"
       ry="0" />
  </g>
  <g
     inkscape:groupmode="layer"
     id="layer3"
     inkscape:label="objects">
    <rect
       style="opacity:1;fill:#00ff01;fill-opacity:1;stroke:#000000;stroke-width:0.0913536;stroke-linejoin:miter;stroke-miterlimit:4;stroke-dasharray:none;stroke-opacity:1"
       id="player"
       width="1"
       height="2"
       x="10.205802"
       y="23.461966"
       ry="0" />
  </g>
</svg>
